<!-- Generator: Adobe Illustrator 21.1.0, SVG Export Plug-In  -->
<svg version="1.1"
	 xmlns="http://www.w3.org/2000/svg" xmlns:xlink="http://www.w3.org/1999/xlink" xmlns:a="http://ns.adobe.com/AdobeSVGViewerExtensions/3.0/"
	 x="0px" y="0px" width="272.352px" height="23.656px" viewBox="0 0 272.352 23.656"
	 style="enable-background:new 0 0 272.352 23.656;" xml:space="preserve">
<style type="text/css">
	.st0{font-family:'Roboto-Light';}
	.st1{font-size:21px;}
	.st2{letter-spacing:1;}
</style>
<defs>
</defs>
<g>
	<g>
		<path d="M1.097,10.49c0-0.725,0.087-1.417,0.261-2.077c0.175-0.659,0.419-1.272,0.733-1.841C2.406,6.006,2.786,5.491,3.23,5.029
			c0.444-0.461,0.937-0.854,1.477-1.179c0.54-0.325,1.119-0.576,1.738-0.754S7.708,2.83,8.377,2.83s1.314,0.089,1.933,0.267
			c0.618,0.178,1.196,0.429,1.732,0.754c0.537,0.324,1.027,0.718,1.472,1.179c0.444,0.462,0.824,0.977,1.138,1.543
			c0.314,0.568,0.559,1.182,0.733,1.841c0.175,0.66,0.262,1.353,0.262,2.077s-0.087,1.416-0.262,2.076
			c-0.174,0.659-0.418,1.274-0.733,1.846c-0.314,0.57-0.694,1.087-1.138,1.548c-0.444,0.462-0.935,0.858-1.472,1.189
			c-0.537,0.332-1.114,0.587-1.732,0.765c-0.619,0.177-1.263,0.266-1.933,0.266s-1.314-0.089-1.933-0.266
			c-0.619-0.178-1.198-0.433-1.738-0.765c-0.54-0.331-1.032-0.728-1.477-1.189c-0.444-0.461-0.824-0.978-1.138-1.548
			c-0.314-0.571-0.559-1.187-0.733-1.846C1.185,11.906,1.097,11.215,1.097,10.49z M1.969,10.49c0,0.635,0.077,1.245,0.23,1.83
			c0.154,0.584,0.369,1.13,0.646,1.635c0.276,0.507,0.611,0.965,1.005,1.375c0.393,0.41,0.827,0.76,1.302,1.051
			c0.475,0.29,0.984,0.516,1.528,0.677c0.543,0.16,1.109,0.241,1.697,0.241c0.875,0,1.7-0.177,2.476-0.528
			c0.776-0.353,1.455-0.834,2.036-1.446c0.581-0.611,1.041-1.331,1.379-2.158c0.338-0.827,0.507-1.719,0.507-2.676
			c0-0.95-0.169-1.839-0.507-2.666C13.93,6.997,13.47,6.28,12.889,5.676c-0.581-0.605-1.26-1.082-2.036-1.431
			S9.252,3.723,8.377,3.723c-0.588,0-1.154,0.078-1.697,0.235C6.137,4.115,5.627,4.339,5.152,4.63
			C4.677,4.92,4.243,5.269,3.851,5.676C3.457,6.082,3.122,6.537,2.846,7.039C2.568,7.542,2.354,8.084,2.199,8.664
			C2.046,9.246,1.969,9.854,1.969,10.49z M11.495,11.74c0,0.541-0.075,1.013-0.226,1.416s-0.366,0.738-0.646,1.004
			c-0.28,0.268-0.619,0.467-1.015,0.601c-0.396,0.133-0.841,0.2-1.333,0.2c-0.52,0-0.99-0.096-1.41-0.287
			c-0.421-0.191-0.779-0.462-1.077-0.811c-0.297-0.349-0.526-0.768-0.687-1.256C4.94,12.118,4.86,11.58,4.86,10.992v-0.984
			c0-0.588,0.08-1.124,0.241-1.609c0.16-0.485,0.39-0.902,0.687-1.252c0.298-0.348,0.656-0.62,1.077-0.814
			c0.42-0.195,0.89-0.293,1.41-0.293c0.492,0,0.937,0.067,1.333,0.2c0.396,0.134,0.736,0.333,1.02,0.601
			c0.284,0.266,0.501,0.602,0.651,1.004c0.15,0.404,0.226,0.872,0.226,1.405H10.49c0-0.793-0.188-1.374-0.564-1.743
			S9,6.952,8.275,6.952c-0.39,0-0.733,0.079-1.031,0.235C6.947,7.346,6.697,7.559,6.496,7.829C6.294,8.099,6.14,8.42,6.034,8.793
			C5.928,9.165,5.875,9.566,5.875,9.998v0.994c0,0.438,0.053,0.843,0.159,1.215c0.106,0.373,0.26,0.694,0.462,0.964
			c0.201,0.271,0.451,0.482,0.748,0.636c0.298,0.154,0.641,0.23,1.031,0.23c0.725,0,1.273-0.181,1.646-0.543
			c0.372-0.362,0.559-0.946,0.559-1.754H11.495z"/>
		<path d="M36.451,13.31c-0.082,0.759-0.26,1.439-0.533,2.04c-0.273,0.603-0.641,1.111-1.102,1.528
			c-0.462,0.417-1.016,0.736-1.661,0.959c-0.646,0.222-1.379,0.333-2.2,0.333c-0.848,0-1.617-0.161-2.307-0.482
			c-0.69-0.32-1.282-0.777-1.774-1.368c-0.492-0.592-0.872-1.301-1.138-2.128s-0.4-1.743-0.4-2.748V9.566
			c0-1.004,0.133-1.922,0.4-2.753c0.267-0.83,0.647-1.539,1.144-2.128c0.495-0.587,1.095-1.044,1.799-1.368
			c0.704-0.325,1.494-0.487,2.369-0.487c0.793,0,1.507,0.109,2.143,0.328s1.181,0.538,1.635,0.959
			c0.455,0.42,0.82,0.933,1.098,1.538c0.276,0.604,0.453,1.29,0.528,2.056h-1.271c-0.075-0.602-0.212-1.14-0.41-1.615
			c-0.198-0.475-0.466-0.873-0.805-1.194c-0.338-0.321-0.748-0.567-1.23-0.738c-0.481-0.171-1.044-0.257-1.687-0.257
			c-0.697,0-1.319,0.136-1.866,0.405c-0.547,0.271-1.012,0.651-1.395,1.144s-0.675,1.085-0.877,1.779
			c-0.202,0.693-0.302,1.465-0.302,2.312v1.896c0,0.82,0.096,1.577,0.287,2.271c0.191,0.693,0.472,1.292,0.841,1.794
			c0.369,0.503,0.824,0.895,1.364,1.175s1.159,0.42,1.856,0.42c1.319,0,2.314-0.316,2.984-0.948c0.67-0.633,1.083-1.581,1.241-2.846
			H36.451z"/>
		<path d="M51.63,17.965h-1.271v-7.157h-8.531v7.157h-1.261V3.035h1.261v6.706h8.531V3.035h1.271V17.965z"/>
		<path d="M58.013,17.965h-1.261V3.035h1.261V17.965z"/>
		<path d="M74.177,17.965h-1.271v-7.157h-8.531v7.157h-1.261V3.035h1.261v6.706h8.531V3.035h1.271V17.965z"/>
		<path d="M94.898,4.111h-5.117v13.854H88.52V4.111h-5.106V3.035h11.484V4.111z"/>
		<path d="M99.896,17.965h-1.261V3.035h1.261V17.965z"/>
		<path d="M116.111,17.965h-1.261l-8.583-12.776v12.776h-1.271V3.035h1.271l8.593,12.787V3.035h1.251V17.965z"/>
		<path d="M131.732,16.191c-0.13,0.184-0.327,0.393-0.589,0.625c-0.264,0.232-0.605,0.448-1.025,0.646
			c-0.421,0.198-0.927,0.365-1.518,0.502c-0.592,0.137-1.277,0.205-2.056,0.205c-0.882,0-1.688-0.159-2.42-0.477
			c-0.731-0.318-1.362-0.772-1.892-1.364c-0.53-0.591-0.941-1.308-1.235-2.147c-0.294-0.842-0.441-1.785-0.441-2.83V9.536
			c0-1.025,0.133-1.951,0.4-2.778s0.651-1.531,1.153-2.113c0.503-0.58,1.109-1.028,1.82-1.343s1.514-0.472,2.41-0.472
			c0.827,0,1.559,0.111,2.194,0.333c0.636,0.223,1.176,0.532,1.62,0.929s0.796,0.862,1.056,1.399
			c0.26,0.536,0.431,1.119,0.513,1.748h-1.261c-0.075-0.444-0.205-0.868-0.39-1.271s-0.441-0.757-0.769-1.062
			c-0.328-0.304-0.733-0.547-1.215-0.728c-0.482-0.182-1.062-0.272-1.738-0.272c-0.731,0-1.377,0.136-1.938,0.405
			c-0.561,0.271-1.034,0.649-1.42,1.139c-0.386,0.488-0.678,1.078-0.876,1.769s-0.297,1.456-0.297,2.297v1.836
			c0,0.875,0.113,1.666,0.338,2.373c0.226,0.708,0.545,1.312,0.958,1.811s0.911,0.885,1.492,1.158s1.227,0.41,1.938,0.41
			c0.574,0,1.08-0.043,1.518-0.128c0.438-0.086,0.817-0.193,1.138-0.323s0.586-0.27,0.795-0.42c0.208-0.15,0.367-0.294,0.477-0.432
			v-3.855h-4.009v-1.066h5.271V16.191z"/>
		<path d="M150.576,13.781h-6.777l-1.538,4.184h-1.323l5.65-14.93h1.199l5.65,14.93h-1.312L150.576,13.781z M144.188,12.705h5.988
			l-2.994-8.132L144.188,12.705z"/>
		<path d="M157.953,16.898h7.372v1.066h-8.644V3.035h1.271V16.898z"/>
		<path d="M170.334,17.965h-1.262V3.035h1.262V17.965z"/>
		<path d="M186.006,13.31c-0.082,0.759-0.26,1.439-0.533,2.04c-0.273,0.603-0.642,1.111-1.103,1.528
			c-0.462,0.417-1.016,0.736-1.661,0.959c-0.646,0.222-1.379,0.333-2.199,0.333c-0.848,0-1.617-0.161-2.308-0.482
			c-0.69-0.32-1.281-0.777-1.773-1.368c-0.492-0.592-0.872-1.301-1.139-2.128s-0.399-1.743-0.399-2.748V9.566
			c0-1.004,0.133-1.922,0.399-2.753c0.267-0.83,0.647-1.539,1.144-2.128c0.495-0.587,1.096-1.044,1.8-1.368
			c0.704-0.325,1.493-0.487,2.368-0.487c0.793,0,1.508,0.109,2.144,0.328s1.181,0.538,1.635,0.959
			c0.455,0.42,0.82,0.933,1.098,1.538c0.276,0.604,0.453,1.29,0.528,2.056h-1.271c-0.075-0.602-0.212-1.14-0.41-1.615
			c-0.198-0.475-0.467-0.873-0.806-1.194c-0.338-0.321-0.748-0.567-1.23-0.738c-0.481-0.171-1.044-0.257-1.687-0.257
			c-0.697,0-1.319,0.136-1.866,0.405c-0.547,0.271-1.012,0.651-1.395,1.144s-0.675,1.085-0.877,1.779
			c-0.201,0.693-0.302,1.465-0.302,2.312v1.896c0,0.82,0.096,1.577,0.287,2.271c0.191,0.693,0.472,1.292,0.841,1.794
			c0.369,0.503,0.823,0.895,1.363,1.175s1.159,0.42,1.856,0.42c1.319,0,2.313-0.316,2.983-0.948c0.67-0.633,1.084-1.581,1.241-2.846
			H186.006z"/>
		<path d="M198.365,10.808h-6.982v6.091h8.028v1.066h-9.29V3.035h9.239v1.076h-7.978v5.63h6.982V10.808z"/>
		<path d="M212.032,13.936l0.461,2.316l0.564-2.215l3.24-11.002h1.138l3.199,11.002l0.554,2.236l0.492-2.338l2.697-10.9h1.292
			l-3.825,14.93h-1.21l-3.384-11.68l-0.379-1.477l-0.369,1.477l-3.466,11.68h-1.21l-3.814-14.93h1.292L212.032,13.936z"/>
		<path d="M236.769,13.781h-6.777l-1.538,4.184h-1.323l5.65-14.93h1.199l5.65,14.93h-1.312L236.769,13.781z M230.381,12.705h5.988
			l-2.994-8.132L230.381,12.705z"/>
		<path d="M253.989,17.965h-1.262l-8.582-12.776v12.776h-1.271V3.035h1.271l8.593,12.787V3.035h1.251V17.965z"/>
		<path d="M269.609,16.191c-0.13,0.184-0.326,0.393-0.589,0.625c-0.264,0.232-0.605,0.448-1.025,0.646
			c-0.421,0.198-0.927,0.365-1.518,0.502c-0.592,0.137-1.277,0.205-2.057,0.205c-0.882,0-1.688-0.159-2.42-0.477
			c-0.731-0.318-1.362-0.772-1.892-1.364c-0.53-0.591-0.941-1.308-1.235-2.147c-0.294-0.842-0.441-1.785-0.441-2.83V9.536
			c0-1.025,0.134-1.951,0.4-2.778s0.651-1.531,1.153-2.113c0.503-0.58,1.109-1.028,1.82-1.343s1.514-0.472,2.409-0.472
			c0.827,0,1.559,0.111,2.194,0.333c0.636,0.223,1.176,0.532,1.62,0.929s0.797,0.862,1.057,1.399
			c0.26,0.536,0.431,1.119,0.513,1.748h-1.262c-0.075-0.444-0.205-0.868-0.39-1.271s-0.44-0.757-0.769-1.062
			c-0.328-0.304-0.733-0.547-1.215-0.728c-0.482-0.182-1.062-0.272-1.738-0.272c-0.731,0-1.378,0.136-1.938,0.405
			c-0.561,0.271-1.034,0.649-1.42,1.139c-0.387,0.488-0.679,1.078-0.877,1.769s-0.297,1.456-0.297,2.297v1.836
			c0,0.875,0.112,1.666,0.338,2.373c0.226,0.708,0.545,1.312,0.959,1.811c0.413,0.499,0.911,0.885,1.492,1.158
			s1.227,0.41,1.938,0.41c0.574,0,1.08-0.043,1.518-0.128c0.438-0.086,0.817-0.193,1.139-0.323s0.586-0.27,0.795-0.42
			c0.208-0.15,0.367-0.294,0.477-0.432v-3.855h-4.01v-1.066h5.271V16.191z"/>
	</g>
</g>
</svg>