<!-- Generator: Adobe Illustrator 21.1.0, SVG Export Plug-In  -->
<svg version="1.1"
	 xmlns="http://www.w3.org/2000/svg" xmlns:xlink="http://www.w3.org/1999/xlink" xmlns:a="http://ns.adobe.com/AdobeSVGViewerExtensions/3.0/"
	 x="0px" y="0px" width="331.671px" height="46.185px" viewBox="0 0 331.671 46.185"
	 style="enable-background:new 0 0 331.671 46.185;" xml:space="preserve">
<style type="text/css">
	.st0{font-family:'Roboto-Medium';}
	.st1{font-size:41px;}
</style>
<defs>
</defs>
<g>
	<g>
		<path d="M25.205,25.585c-0.134,1.428-0.467,2.746-1.001,3.954c-0.534,1.208-1.275,2.252-2.222,3.133
			c-0.948,0.881-2.105,1.568-3.474,2.062s-2.946,0.741-4.734,0.741c-1.789,0-3.407-0.324-4.854-0.971
			c-1.449-0.647-2.683-1.568-3.704-2.763c-1.021-1.194-1.805-2.639-2.352-4.334c-0.547-1.695-0.821-3.597-0.821-5.706v-2.362
			c0-2.095,0.28-3.994,0.841-5.695c0.561-1.702,1.361-3.153,2.402-4.354s2.299-2.128,3.773-2.783
			c1.475-0.654,3.126-0.981,4.955-0.981c1.735,0,3.27,0.25,4.604,0.751c1.334,0.5,2.465,1.194,3.394,2.082
			c0.927,0.888,1.654,1.945,2.182,3.173c0.527,1.228,0.864,2.569,1.011,4.024H20.16c-0.107-0.921-0.291-1.748-0.55-2.482
			c-0.261-0.734-0.631-1.358-1.111-1.872s-1.088-0.904-1.822-1.171c-0.734-0.267-1.622-0.4-2.663-0.4
			c-1.148,0-2.152,0.217-3.013,0.651c-0.861,0.434-1.579,1.061-2.152,1.882c-0.574,0.82-1.004,1.832-1.291,3.033
			c-0.288,1.201-0.431,2.569-0.431,4.104v2.402c0,1.455,0.126,2.776,0.38,3.964c0.253,1.188,0.647,2.206,1.181,3.053
			c0.534,0.848,1.221,1.505,2.062,1.972c0.841,0.467,1.848,0.701,3.023,0.701c1.094,0,2.019-0.126,2.772-0.38
			c0.754-0.253,1.378-0.627,1.872-1.121c0.494-0.494,0.877-1.101,1.151-1.822c0.273-0.721,0.47-1.548,0.59-2.482H25.205z"/>
		<path d="M53.077,35.074h-5.045V22.122H34.999v12.953h-5.065V5.926h5.065v12.132h13.033V5.926h5.045V35.074z"/>
		<path d="M64.613,35.074h-5.045V5.926h5.045V35.074z"/>
		<path d="M94.187,35.074h-5.045V22.122H76.109v12.953h-5.065V5.926h5.065v12.132h13.033V5.926h5.045V35.074z"/>
		<path d="M130.651,10.01h-9.089v25.064h-5.025V10.01h-9.009V5.926h23.123V10.01z"/>
		<path d="M140.025,35.074h-5.045V5.926h5.045V35.074z"/>
		<path d="M169.579,35.074h-5.065l-12.993-20.68v20.68h-5.065V5.926h5.065l13.033,20.76V5.926h5.025V35.074z"/>
		<path d="M198.112,31.291c-0.307,0.4-0.734,0.844-1.281,1.332c-0.547,0.487-1.251,0.94-2.112,1.361
			c-0.86,0.42-1.895,0.774-3.103,1.061c-1.208,0.287-2.626,0.431-4.254,0.431c-1.829,0-3.507-0.314-5.035-0.941
			c-1.529-0.627-2.84-1.535-3.934-2.723c-1.095-1.188-1.945-2.649-2.552-4.384c-0.608-1.735-0.911-3.717-0.911-5.946v-1.922
			c0-2.215,0.273-4.194,0.821-5.936c0.547-1.741,1.334-3.213,2.362-4.414c1.027-1.201,2.282-2.115,3.764-2.743
			c1.481-0.627,3.163-0.941,5.045-0.941c1.775,0,3.323,0.23,4.645,0.69c1.321,0.461,2.436,1.105,3.343,1.932
			c0.907,0.828,1.622,1.812,2.142,2.953c0.521,1.142,0.867,2.393,1.041,3.754h-4.965c-0.12-0.761-0.32-1.461-0.601-2.102
			s-0.664-1.194-1.151-1.662c-0.488-0.467-1.088-0.834-1.802-1.101c-0.714-0.267-1.565-0.4-2.553-0.4
			c-1.188,0-2.219,0.22-3.093,0.661c-0.875,0.44-1.602,1.084-2.183,1.932c-0.58,0.848-1.014,1.889-1.301,3.123
			c-0.288,1.235-0.431,2.64-0.431,4.214v1.962c0,1.602,0.173,3.02,0.521,4.254c0.347,1.234,0.844,2.272,1.491,3.113
			s1.435,1.481,2.362,1.922s1.979,0.661,3.153,0.661c0.867,0,1.611-0.057,2.232-0.17c0.62-0.113,1.144-0.257,1.571-0.431
			c0.427-0.173,0.777-0.363,1.051-0.57s0.497-0.404,0.671-0.591v-5.706h-6.006V20.12h11.051V31.291z"/>
		<path d="M237.159,27.867l4.484-21.941h5.025l-6.727,29.148h-4.845l-5.545-21.281l-5.666,21.281h-4.865l-6.727-29.148h5.025
			l4.524,21.901l5.565-21.901h4.244L237.159,27.867z"/>
		<path d="M266.032,28.288h-11.291l-2.362,6.787h-5.265l11.011-29.148h4.544L273.7,35.074h-5.285L266.032,28.288z M256.163,24.204
			h8.448l-4.224-12.092L256.163,24.204z"/>
		<path d="M300.331,35.074h-5.065l-12.993-20.68v20.68h-5.065V5.926h5.065l13.033,20.76V5.926h5.025V35.074z"/>
		<path d="M328.863,31.291c-0.307,0.4-0.734,0.844-1.281,1.332c-0.547,0.487-1.251,0.94-2.112,1.361
			c-0.86,0.42-1.895,0.774-3.103,1.061c-1.208,0.287-2.626,0.431-4.254,0.431c-1.829,0-3.507-0.314-5.035-0.941
			c-1.529-0.627-2.84-1.535-3.934-2.723c-1.095-1.188-1.945-2.649-2.552-4.384c-0.608-1.735-0.911-3.717-0.911-5.946v-1.922
			c0-2.215,0.273-4.194,0.821-5.936c0.547-1.741,1.334-3.213,2.362-4.414c1.027-1.201,2.282-2.115,3.764-2.743
			c1.481-0.627,3.163-0.941,5.045-0.941c1.775,0,3.323,0.23,4.645,0.69c1.321,0.461,2.436,1.105,3.343,1.932
			c0.907,0.828,1.622,1.812,2.142,2.953c0.521,1.142,0.867,2.393,1.041,3.754h-4.965c-0.12-0.761-0.32-1.461-0.601-2.102
			s-0.664-1.194-1.151-1.662c-0.488-0.467-1.088-0.834-1.802-1.101c-0.714-0.267-1.565-0.4-2.553-0.4
			c-1.188,0-2.219,0.22-3.093,0.661c-0.875,0.44-1.602,1.084-2.183,1.932c-0.58,0.848-1.014,1.889-1.301,3.123
			c-0.288,1.235-0.431,2.64-0.431,4.214v1.962c0,1.602,0.173,3.02,0.521,4.254c0.347,1.234,0.844,2.272,1.491,3.113
			s1.435,1.481,2.362,1.922s1.979,0.661,3.153,0.661c0.867,0,1.611-0.057,2.232-0.17c0.62-0.113,1.144-0.257,1.571-0.431
			c0.427-0.173,0.777-0.363,1.051-0.57s0.497-0.404,0.671-0.591v-5.706h-6.006V20.12h11.051V31.291z"/>
	</g>
</g>
</svg>